<svg width="38" height="36" viewBox="0 0 38 36" fill="none" xmlns="http://www.w3.org/2000/svg">
<path d="M32.9887 10.11C32.672 10.305 32.2208 10.485 32.0308 10.6875C31.9595 10.755 31.9199 10.83 31.9358 10.905V11.6775L31.6983 12.435L31.4608 13.185L31.1995 14.01L30.6612 15.6975L30.1387 17.3625L29.7429 18.615C29.7429 18.81 29.7349 19.005 29.7191 19.1925C29.6637 19.9125 29.5054 20.6025 29.252 21.2475C29.1016 21.645 28.9195 22.0275 28.6979 22.3875C28.6187 22.53 28.5237 22.6725 28.4287 22.8075C28.112 23.28 27.732 23.715 27.3124 24.0975C26.9879 24.405 26.6316 24.69 26.2437 24.93C26.2437 24.93 26.2437 24.93 26.2358 24.93C26.1724 24.9825 26.1012 25.0275 26.022 25.065C25.7766 25.2225 25.5154 25.3575 25.2462 25.4775C25.0641 25.5675 24.882 25.6425 24.692 25.71C24.6524 25.7325 24.6049 25.7475 24.5654 25.7625C24.1141 25.965 23.5916 26.1 23.0691 26.1675C23.0374 26.175 23.0137 26.175 22.982 26.1825C22.6654 26.235 22.3566 26.28 22.0399 26.3025C21.8974 26.3175 21.747 26.325 21.6045 26.325L21.0424 26.295L18.3349 26.16C18.3349 26.1525 18.327 26.16 18.327 26.16L16.9654 26.0925C16.8624 26.0925 16.7516 26.0925 16.6487 26.085C16.2212 26.07 15.8095 26.025 15.3979 25.9425C15.3899 25.9425 15.3899 25.9425 15.3899 25.9425C14.6379 25.8075 13.9174 25.5675 13.2445 25.245C12.8724 25.065 12.5083 24.8625 12.1679 24.63C12.0254 24.5325 11.8908 24.4275 11.7562 24.315C11.3762 24.015 11.0358 23.6925 10.7191 23.3625C10.6716 23.3175 10.632 23.2725 10.5924 23.2275C10.5449 23.1825 10.4974 23.13 10.4579 23.085C10.157 22.725 9.90369 22.3575 9.69786 21.9675C9.50786 21.6225 9.35744 21.255 9.23869 20.85C9.19119 20.7075 9.15161 20.5725 9.11994 20.4225C9.11203 20.415 9.10411 20.4 9.10411 20.385C9.02494 20.0775 8.95369 19.755 8.91411 19.4325C8.86661 19.185 8.84286 18.9375 8.84286 18.6825C8.82703 18.585 8.82703 18.48 8.82703 18.3825L10.3391 16.17L11.8195 14.01L12.4924 13.0275L13.102 12.1425L13.3079 11.835V11.0625C13.3237 10.89 13.3316 10.71 13.3237 10.545C13.3158 10.02 13.2049 9.51 13.0229 9.0225C12.8487 8.505 12.6033 8.0175 12.3499 7.5675C12.0491 7.05 11.7324 6.585 11.4712 6.165C11.0833 5.55 10.8141 5.0475 10.8854 4.695C11.4554 4.5675 12.057 4.5 12.6666 4.5H25.3333C28.6424 4.5 31.4924 6.45 32.672 9.195C32.7987 9.4875 32.9095 9.795 32.9887 10.11Z" fill="#304FFE"/>
<path d="M33.2501 12V12.2025L32.1576 12.8025L31.4609 13.185L30.693 13.605L29.1571 14.4525L27.653 15.2775L26.1171 16.1175L25.5076 16.455C25.5076 16.815 25.4126 17.145 25.2384 17.445C24.993 17.88 24.5813 18.24 24.0588 18.5475C23.5284 18.855 22.8792 19.1025 22.1509 19.2825C22.1509 19.2825 22.1509 19.275 22.143 19.2825C19.3246 19.9725 15.4771 19.6575 13.6088 18.3375C13.0863 17.97 12.7221 17.52 12.5638 17.0025C12.5163 16.83 12.4926 16.6425 12.4926 16.455V11.0625C12.5005 10.95 12.4213 10.8375 12.2788 10.725C11.8513 10.4025 10.8459 10.095 9.72172 9.7875C8.84297 9.555 7.90089 9.3225 7.10922 9.0975C6.4838 8.9175 5.95339 8.7375 5.63672 8.565C5.77922 8.3025 5.94547 8.04 6.11964 7.7925C7.22797 6.255 8.92214 5.1225 10.8855 4.695C11.4555 4.5675 12.0571 4.5 12.6667 4.5H21.2167C25.468 5.205 29.3867 6.8475 32.6721 9.195C32.7988 9.4875 32.9096 9.795 32.9888 10.11C33.1313 10.605 33.2184 11.115 33.2421 11.6475C33.2501 11.76 33.2501 11.88 33.2501 12Z" fill="#4928F4"/>
<path d="M33.2501 12V15.3075L33.0759 15.8175L32.4821 17.565L31.8646 19.365L31.5401 20.325L31.2392 21.2175L30.9463 22.065L30.6613 22.905L30.5109 23.3475L30.313 23.9325C30.313 24.5025 30.2971 25.005 30.2576 25.4325C30.2496 25.4775 30.2417 25.5225 30.2417 25.5675C30.1942 25.965 30.1309 26.3025 30.028 26.5875C30.0201 26.6325 30.0042 26.6775 29.9884 26.715C29.7826 27.255 29.4738 27.6 29.0146 27.825C28.9038 27.885 28.7771 27.93 28.6426 27.975C28.223 28.11 27.6926 28.1775 27.0434 28.215C26.5684 28.245 26.0221 28.2525 25.4046 28.2525H24.8584L23.9163 28.215L23.7501 28.2075L22.0321 28.14L20.2905 28.0725L14.5509 27.8475L13.0626 27.7875H12.8567C12.2392 27.78 11.7088 27.7425 11.2496 27.6825C10.5846 27.585 10.0701 27.42 9.68214 27.1725C9.12798 26.835 8.80339 26.34 8.61339 25.65C8.56589 25.485 8.52631 25.3125 8.50256 25.125C8.42339 24.69 8.38381 24.1875 8.36006 23.625C8.36006 23.5125 8.36006 23.4 8.35214 23.28C8.34423 23.2725 8.35214 23.2725 8.35214 23.2725V22.8375C8.34423 22.62 8.34423 22.395 8.34423 22.1625L8.38381 20.955L8.40756 20.0925L8.43923 19.0875V18.945L8.49464 17.1L8.55006 15.255L8.60548 13.5225L8.65298 11.82L8.66881 11.37C8.66881 11.1375 7.83756 11.0025 6.91131 10.89C6.17506 10.8 5.36756 10.7175 4.88464 10.6125C4.92423 10.44 4.96381 10.2675 5.01131 10.1025C5.15381 9.56254 5.36756 9.05254 5.63673 8.56504C5.77923 8.30254 5.94548 8.04004 6.11964 7.79254C7.82964 7.08004 9.61089 6.52504 11.4713 6.16504C13.1021 5.84254 14.8042 5.67004 16.5617 5.67004C22.3884 5.67004 27.7717 7.53754 32.0309 10.6875C32.4426 10.9875 32.8463 11.31 33.2421 11.6475C33.2501 11.76 33.2501 11.88 33.2501 12Z" fill="#6200EA"/>
<path d="M33.25 13.7775V17.1825L32.8146 17.9775L31.9833 19.515L31.54 20.325L31.1363 21.0675L30.9621 21.39C30.9621 21.6225 30.9621 21.8475 30.9463 22.065C30.9463 22.3875 30.9304 22.695 30.9067 22.98C30.875 23.3175 30.8275 23.625 30.78 23.91C30.6613 24.5025 30.495 25.0125 30.2575 25.4325C30.2258 25.485 30.1942 25.5375 30.1625 25.5825C30.0754 25.7175 29.9725 25.845 29.8617 25.965C29.7192 26.13 29.5608 26.2725 29.3788 26.3925C29.1096 26.5875 28.7929 26.745 28.4288 26.865C27.9775 27.0225 27.455 27.1275 26.8375 27.1875C26.4338 27.225 25.9904 27.2475 25.5075 27.2475L25.175 27.2625L23.5283 27.3525H23.5204L21.7708 27.45L19.9896 27.5475L17.5354 27.6825L14.5508 27.8475L14.1154 27.87C13.7117 27.87 13.3317 27.8475 12.9675 27.8025C12.9279 27.795 12.8962 27.7875 12.8567 27.7875C12.3183 27.705 11.8275 27.57 11.3842 27.3825C10.8458 27.1575 10.3787 26.8575 9.98292 26.4975C9.63458 26.175 9.33375 25.8075 9.08833 25.395C9.03292 25.2975 8.9775 25.2075 8.93 25.1025C8.6925 24.66 8.5025 24.165 8.36 23.625C8.33625 23.535 8.3125 23.4375 8.29667 23.34C8.24917 23.1675 8.20958 22.9875 8.18583 22.8C8.09875 22.32 8.05125 21.81 8.0275 21.2775V21.27C8.01958 21.0525 8.01167 20.8425 8.01167 20.6175L7.62375 19.74L7.56833 19.605L7.52083 19.4925L6.92708 18.15L6.83208 17.9325L6.26208 16.635L5.62875 15.1875C5.62875 15.1875 5.62875 15.1875 5.62083 15.1875L4.97958 13.725L4.75 13.1925V12C4.75 11.5275 4.7975 11.0625 4.88458 10.6125C4.92417 10.44 4.96375 10.2675 5.01125 10.1025C5.68417 9.73502 6.38875 9.39752 7.10917 9.09752C8.75583 8.40002 10.5213 7.88252 12.35 7.56752C13.7117 7.33502 15.1288 7.20752 16.5617 7.20752C22.3488 7.20752 27.5975 9.19502 31.6983 12.435C31.8567 12.555 32.0071 12.675 32.1575 12.8025C32.5296 13.11 32.8938 13.4325 33.25 13.7775Z" fill="#673AB7"/>
<path d="M33.25 16.0124V19.8674L32.7988 20.7599L31.9438 22.4474L31.9358 22.4699C31.9358 22.7924 31.92 23.0849 31.8963 23.3474C31.8171 24.2099 31.5954 24.7574 31.2313 25.0949C30.97 25.3499 30.6454 25.4924 30.2417 25.5674C30.2179 25.5749 30.1862 25.5749 30.1625 25.5824C30.0358 25.6049 29.9013 25.6199 29.7588 25.6199C29.2679 25.6649 28.69 25.6349 28.025 25.5899C27.9538 25.5899 27.8746 25.5824 27.7954 25.5749C27.3125 25.5449 26.7979 25.5149 26.2279 25.4924C25.9192 25.4849 25.5946 25.4774 25.2621 25.4774H25.2463L24.4467 25.5374H24.4388L22.6417 25.6574L20.5913 25.8074L20.2904 25.8299L17.8917 25.9949L16.6488 26.0849L15.4217 26.1674C15.2079 26.1674 15.0021 26.1674 14.7963 26.1599C14.7963 26.1599 14.7883 26.1524 14.7883 26.1599C13.8938 26.1449 13.0942 26.0924 12.3817 25.9649C11.7246 25.8599 11.1467 25.6949 10.6558 25.4474C10.1492 25.2149 9.72958 24.8849 9.38917 24.4649C9.06458 24.0524 8.82708 23.5349 8.67667 22.9124C8.67667 22.9049 8.67667 22.9049 8.67667 22.9049C8.56583 22.4024 8.5025 21.8174 8.5025 21.1574L8.38375 20.9549L7.67917 19.7624L7.57625 19.5974L7.52083 19.4924L6.78458 18.2549L6.42042 17.6324L5.96125 16.8599L5.16958 15.5174L4.75 14.8124V12.0524C5.44667 11.6174 6.16708 11.2349 6.91125 10.8899C7.81375 10.4549 8.74792 10.0874 9.72167 9.78744C10.7825 9.45744 11.8908 9.19494 13.0229 9.02244C14.1708 8.84244 15.3504 8.75244 16.5617 8.75244C21.945 8.75244 26.885 10.5749 30.6929 13.6049C30.8671 13.7324 31.0333 13.8749 31.1996 14.0099C31.8646 14.5724 32.4979 15.1799 33.0758 15.8174C33.1392 15.8849 33.2025 15.9449 33.25 16.0124Z" fill="#8E24AA"/>
<path d="M33.25 18.5325V23.955C33.06 23.85 32.7988 23.7225 32.4742 23.5875C32.3 23.505 32.1021 23.4225 31.8963 23.3475C31.5954 23.22 31.2708 23.1 30.9067 22.98C30.8275 22.95 30.7483 22.9275 30.6613 22.905C30.5188 22.8525 30.3683 22.8075 30.2179 22.7625C29.7508 22.6275 29.2362 22.5 28.6979 22.3875C28.4921 22.35 28.2783 22.3125 28.0646 22.2825C27.3758 22.17 26.6396 22.1025 25.8717 22.095C25.8083 22.0875 25.7371 22.0875 25.6737 22.0875L23.6392 22.1025L20.8683 22.1175H20.8604L14.9308 22.1625C13.0467 22.1625 11.8908 22.59 11.1942 22.7625C11.1942 22.7625 11.1863 22.7625 11.1863 22.77C10.45 22.95 10.2204 22.8375 10.1571 21.615C10.1413 21.2775 10.1333 20.8425 10.1333 20.31L9.69 19.9875L8.91417 19.4325L8.43917 19.0875L8.34417 19.02L7.03 18.075L6.83208 17.9325L6.42042 17.6325L5.66042 17.0925L4.75 16.4325V13.8825C4.82917 13.8225 4.90042 13.77 4.97958 13.725C6.1275 12.975 7.35458 12.3375 8.65292 11.82C9.80875 11.355 11.0279 10.9875 12.2788 10.725C12.6192 10.6575 12.9675 10.59 13.3238 10.545C14.3767 10.3725 15.4613 10.29 16.5617 10.29C21.3196 10.29 25.6896 11.8575 29.1571 14.4525C29.6796 14.8425 30.1863 15.255 30.6613 15.6975C31.3104 16.2825 31.92 16.905 32.4821 17.565C32.5929 17.7 32.7038 17.835 32.8146 17.9775C32.965 18.1575 33.1075 18.345 33.25 18.5325Z" fill="#C2185B"/>
<path d="M33.25 21.54V24C33.25 24.4875 33.2025 24.9675 33.1075 25.4325C32.965 26.1225 32.7196 26.7825 32.3871 27.3975C32.2129 27.435 32.015 27.435 31.7933 27.405C31.2946 27.3225 30.7088 27.075 30.0754 26.7525C30.0438 26.745 30.0121 26.73 29.9883 26.715C29.7904 26.6175 29.5846 26.5125 29.3788 26.3925C28.9592 26.175 28.5158 25.935 28.0725 25.71C27.9775 25.665 27.8825 25.62 27.7954 25.575C27.2888 25.3275 26.7663 25.1025 26.2438 24.93C26.2438 24.93 26.2437 24.93 26.2358 24.93C26.125 24.8925 26.0063 24.855 25.8875 24.825C25.4363 24.705 24.9771 24.63 24.5338 24.63L23.6629 24.39L19.8075 23.3325C19.8075 23.3325 19.8075 23.3325 19.7996 23.3325L17.4325 22.68H17.4246L16.3954 22.395C13.4187 22.395 11.59 23.595 10.7033 23.1375C10.355 22.965 10.1492 22.53 10.0779 21.675C10.0542 21.435 10.0462 21.165 10.0462 20.85L9.12 20.4225L9.08042 20.4075H9.0725L8.4075 20.0925L7.67917 19.7625L7.62375 19.74L7.48917 19.6725L5.9375 18.96L4.75 18.4125V15.84C4.88458 15.7275 5.02708 15.6225 5.16958 15.5175C5.32 15.405 5.47042 15.3 5.62083 15.1875C5.62875 15.1875 5.62875 15.1875 5.62875 15.1875C6.56292 14.55 7.5525 13.9875 8.60542 13.5225C9.8325 12.9675 11.1388 12.54 12.4925 12.2625C12.6904 12.2175 12.8962 12.1725 13.1021 12.1425C14.2262 11.94 15.3821 11.835 16.5617 11.835C20.7338 11.835 24.5654 13.1175 27.6529 15.2775C28.5475 15.9075 29.3787 16.605 30.1388 17.3625C30.7642 17.985 31.3421 18.66 31.8646 19.365C31.9042 19.4175 31.9438 19.47 31.9833 19.515C32.2763 19.92 32.5454 20.3325 32.7988 20.76C32.965 21.015 33.1075 21.2775 33.25 21.54Z" fill="#D81B60"/>
<path d="M33.1075 25.4326C32.965 26.1226 32.7196 26.7826 32.3871 27.3976C32.2367 27.6751 32.0704 27.9376 31.8883 28.1926C31.7775 28.3501 31.6587 28.5001 31.54 28.6426C31.255 28.5376 30.8354 28.3876 30.3208 28.2226C30.3208 28.2226 30.3208 28.2226 30.3208 28.2151C29.9329 28.0876 29.4896 27.9526 29.0146 27.8251C28.88 27.7876 28.7454 27.7501 28.6029 27.7126C28.0408 27.5701 27.455 27.4426 26.885 27.3676C26.41 27.2926 25.9429 27.2476 25.5075 27.2476L25.1433 27.1501H25.1354L23.2196 26.6251L22.04 26.3026L20.7258 25.9426H20.7179L20.2904 25.8301L15.1208 24.4201L13.6325 24.0151L12.5242 23.7676L10.7192 23.3626L10.4975 23.3101C10.4975 23.3101 10.4975 23.3101 10.4896 23.3101L8.67667 22.9126C8.67667 22.9051 8.67667 22.9051 8.67667 22.9051L8.35208 22.8376L8.18583 22.8001L6.86375 22.5076L6.71333 22.4701L5.58917 21.5926L4.75 20.9251V17.8651C5.04292 17.5951 5.34375 17.3401 5.66042 17.0926C5.75542 17.0101 5.85833 16.9351 5.96125 16.8601C6.05625 16.7851 6.15917 16.7101 6.26208 16.6351C6.9825 16.1176 7.7425 15.6526 8.55 15.2551C9.57917 14.7301 10.6717 14.3101 11.8196 14.0101C12.0412 13.9426 12.2629 13.8826 12.4925 13.8376C13.7908 13.5301 15.1525 13.3726 16.5617 13.3726C20.1004 13.3726 23.3938 14.3851 26.1171 16.1176C27.4708 16.9801 28.69 18.0151 29.7192 19.1926C30.2417 19.7851 30.7167 20.4076 31.1362 21.0676C31.1758 21.1201 31.2075 21.1651 31.2392 21.2176C31.4925 21.6151 31.73 22.0276 31.9437 22.4476C32.1417 22.8226 32.3158 23.1976 32.4742 23.5876C32.7275 24.1876 32.9333 24.8026 33.1075 25.4326Z" fill="#F50057"/>
<path d="M31.8883 28.1925C31.7775 28.35 31.6587 28.5 31.54 28.6425C31.1917 29.055 30.8117 29.43 30.3842 29.76C30.0121 30.0525 29.6162 30.315 29.1967 30.54C29.0383 30.5025 28.88 30.4575 28.7137 30.3975C28.1912 30.225 27.645 29.94 27.1383 29.64C26.3783 29.1825 25.7212 28.6875 25.4283 28.4625C25.3175 28.3725 25.2621 28.3275 25.2621 28.3275L23.9162 28.215L23.75 28.2L22.0083 28.0575L20.2033 27.9075L17.5354 27.6825L13.3079 27.33L13.2921 27.3225L11.8037 26.64L10.2996 25.95L9.08833 25.395L8.82708 25.275L8.5025 25.125L7.37833 24.6075L5.88208 23.925L5.415 23.7075L4.75 23.5125V20.16C5.12208 19.74 5.51792 19.3425 5.9375 18.96C6.20667 18.72 6.49167 18.48 6.78458 18.255C6.83208 18.2175 6.87958 18.18 6.92708 18.15C6.95875 18.1125 6.99833 18.09 7.03 18.075C7.49708 17.715 7.98792 17.3925 8.49458 17.1C9.08042 16.7475 9.69792 16.4325 10.3392 16.17C11.0279 15.8775 11.7483 15.63 12.4925 15.4425C13.7829 15.0975 15.1525 14.9175 16.5617 14.9175C19.7917 14.9175 22.7762 15.8475 25.2383 17.445C26.8137 18.465 28.1754 19.755 29.2521 21.2475C29.6083 21.7275 29.925 22.2375 30.2179 22.7625C30.3208 22.9575 30.4237 23.1525 30.5108 23.3475C30.6058 23.535 30.6929 23.7225 30.78 23.91C30.9462 24.3 31.0967 24.69 31.2312 25.095C31.4846 25.845 31.6746 26.61 31.7933 27.405C31.8329 27.6675 31.8646 27.93 31.8883 28.1925Z" fill="#FF1744"/>
<path d="M30.3921 29.565C30.3921 29.625 30.3921 29.6925 30.3842 29.76C30.0121 30.0525 29.6162 30.315 29.1967 30.54C29.0225 30.63 28.8483 30.72 28.6662 30.795C28.4842 30.8775 28.3021 30.9525 28.1121 31.02C27.8429 30.885 27.4788 30.72 27.0908 30.5625C26.5446 30.33 25.9508 30.12 25.4917 30.0525C25.3808 30.03 25.2779 30.0225 25.1829 30.0225L23.8846 29.865H23.8687L22.2537 29.6625L20.6229 29.46L19.8629 29.37L13.8779 28.635C13.49 28.635 13.0783 28.6125 12.6508 28.56C12.1283 28.515 11.5821 28.44 11.0358 28.335C10.4975 28.245 9.95125 28.125 9.42875 27.9975C8.8825 27.8775 8.34417 27.735 7.84542 27.6C7.2675 27.435 6.72917 27.2775 6.27792 27.135C5.90583 27.0225 5.58917 26.9175 5.34375 26.835C5.20125 26.5125 5.0825 26.175 4.99542 25.83C4.82917 25.245 4.75 24.63 4.75 24V22.7475C5.00333 22.35 5.28042 21.96 5.58917 21.5925C6.15125 20.8875 6.7925 20.2425 7.48917 19.6725C7.51292 19.6425 7.54458 19.62 7.56833 19.605L7.57625 19.5975C7.82167 19.3875 8.075 19.2 8.34417 19.02C8.37583 18.99 8.4075 18.9675 8.43917 18.945C8.56583 18.855 8.70042 18.765 8.84292 18.6825C9.975 17.955 11.2258 17.385 12.5637 17.0025C13.8304 16.6425 15.1683 16.455 16.5617 16.455C19.3246 16.455 21.9054 17.2275 24.0587 18.5475C25.65 19.515 27.0196 20.79 28.0646 22.2825C28.1912 22.455 28.31 22.6275 28.4287 22.8075C28.975 23.685 29.4262 24.63 29.7587 25.62C29.7983 25.7325 29.83 25.845 29.8617 25.965C29.925 26.1675 29.9804 26.3775 30.0279 26.5875C30.0437 26.64 30.0596 26.6925 30.0754 26.7525C30.1863 27.225 30.2654 27.72 30.3208 28.215C30.3208 28.2225 30.3208 28.2225 30.3208 28.2225C30.3683 28.665 30.3921 29.115 30.3921 29.565Z" fill="#FF5722"/>
<path d="M28.7612 29.565C28.7612 29.8275 28.7454 30.1125 28.7137 30.3975C28.6979 30.5325 28.682 30.6675 28.6662 30.795C28.4841 30.8775 28.302 30.9525 28.112 31.02C27.7558 31.1475 27.3916 31.2525 27.0195 31.3275C26.7662 31.38 26.5049 31.425 26.2437 31.4475H26.2358C25.9904 31.305 25.7054 31.1325 25.4124 30.9375C24.882 30.585 24.3279 30.1875 23.8845 29.865C23.8766 29.8575 23.8766 29.8575 23.8687 29.85C23.4016 29.5125 23.0691 29.2575 23.0691 29.2575L22.2299 29.2875L20.6149 29.34L19.8629 29.37L16.8387 29.475L14.2816 29.565C14.1154 29.5725 13.9174 29.5725 13.672 29.565H13.6641C13.3316 29.5575 12.9358 29.535 12.5004 29.4975C11.9937 29.46 11.4395 29.415 10.8774 29.3625C10.3312 29.3025 9.77703 29.2425 9.24661 29.1825C8.66078 29.1225 8.10661 29.055 7.63161 28.995C7.25953 28.95 6.93494 28.9125 6.67369 28.8825C6.45203 28.6425 6.25411 28.395 6.06411 28.125C5.77911 27.72 5.53369 27.2925 5.34369 26.835C5.20119 26.5125 5.08244 26.175 4.99536 25.83C5.22494 25.1625 5.52578 24.5325 5.88203 23.925C6.16703 23.43 6.49953 22.9575 6.86369 22.5075C7.21994 22.065 7.60786 21.6525 8.02744 21.2775V21.27C8.14619 21.1575 8.26494 21.0525 8.38369 20.955C8.60536 20.76 8.83494 20.58 9.07244 20.4075H9.08036C9.08828 20.3925 9.09619 20.3925 9.10411 20.385C9.29411 20.2425 9.49203 20.115 9.68994 19.9875C10.8616 19.23 12.1837 18.6675 13.6087 18.3375C14.5508 18.12 15.5404 18 16.5616 18C18.5724 18 20.4724 18.4575 22.1429 19.2825H22.1508C23.5837 19.98 24.8504 20.94 25.8716 22.095C26.4337 22.71 26.9166 23.385 27.3124 24.0975C27.5895 24.5775 27.827 25.08 28.0249 25.59C28.0408 25.635 28.0566 25.6725 28.0724 25.71C28.207 26.085 28.3258 26.475 28.4287 26.865C28.4999 27.1425 28.5554 27.4275 28.6029 27.7125C28.6187 27.8025 28.6345 27.885 28.6424 27.975C28.7216 28.4925 28.7612 29.025 28.7612 29.565Z" fill="#FF6F00"/>
<path d="M27.1384 29.565V29.64C27.1384 29.895 27.1146 30.2175 27.0909 30.5625C27.0671 30.8175 27.0434 31.08 27.0196 31.3275C26.7663 31.38 26.505 31.425 26.2438 31.4475H26.2359C25.935 31.485 25.6421 31.5 25.3334 31.5H23.948L23.6471 31.4175L22.0875 30.9675L20.5042 30.5175L16.8388 29.475L15.2555 29.025C15.2555 29.025 14.5984 29.2725 13.6721 29.565H13.6642C13.308 29.6775 12.92 29.7975 12.5084 29.9175C11.9938 30.06 11.4475 30.2025 10.9092 30.315C10.355 30.435 9.80879 30.525 9.31796 30.5625C9.16754 30.5775 9.01713 30.585 8.88254 30.585C8.43921 30.3525 8.01171 30.075 7.62379 29.7675C7.28338 29.4975 6.96671 29.205 6.67379 28.8825C6.45213 28.6425 6.25421 28.395 6.06421 28.125C6.11963 27.7875 6.18296 27.4575 6.27796 27.135C6.51546 26.2425 6.88754 25.3875 7.37838 24.6075C7.64754 24.165 7.94838 23.7375 8.29671 23.34C8.30463 23.3175 8.32838 23.295 8.35213 23.28C8.34421 23.2725 8.35213 23.2725 8.35213 23.2725C8.45504 23.145 8.56588 23.025 8.67671 22.9125C8.67671 22.905 8.67671 22.905 8.67671 22.905C9.00129 22.575 9.33379 22.26 9.69796 21.9675C9.82463 21.87 9.94338 21.7725 10.078 21.675C10.1017 21.6525 10.1255 21.6375 10.1571 21.615C11.9384 20.325 14.163 19.545 16.5617 19.545C19.285 19.545 21.763 20.5125 23.6392 22.1025C24.5417 22.875 25.3096 23.7975 25.8875 24.825C25.935 24.9 25.9825 24.9825 26.0221 25.065C26.0934 25.2 26.1646 25.3425 26.228 25.4925C26.4892 26.0325 26.695 26.6025 26.8375 27.1875C26.8534 27.2475 26.8692 27.3075 26.885 27.3675C26.9484 27.645 27.0038 27.93 27.0434 28.215C27.1067 28.6575 27.1384 29.1075 27.1384 29.565Z" fill="#FF9800"/>
<path d="M25.5075 29.565C25.5075 29.715 25.4996 29.88 25.4917 30.0525C25.4758 30.33 25.4521 30.63 25.4125 30.9375C25.3967 31.125 25.365 31.3125 25.3333 31.5H20.995L20.1558 31.3725L16.8783 30.8775L16.4112 30.81L15.3425 30.645C14.8754 30.645 13.8621 30.84 12.7933 31.0275C12.2312 31.125 11.6612 31.23 11.1467 31.2975C11.0833 31.305 11.02 31.3125 10.9646 31.32H10.9567C10.4025 31.2075 9.86416 31.035 9.35749 30.81C9.19916 30.7425 9.04083 30.6675 8.88249 30.585C8.43916 30.3525 8.01166 30.075 7.62374 29.7675C7.61583 29.6775 7.60791 29.6025 7.60791 29.565C7.60791 29.37 7.61583 29.1825 7.63166 28.995C7.66333 28.515 7.73458 28.05 7.84541 27.6C8.01958 26.9175 8.27291 26.2575 8.61333 25.65C8.67666 25.5225 8.74791 25.395 8.82708 25.275C8.85874 25.215 8.89833 25.1625 8.92999 25.1025C9.07249 24.885 9.23083 24.675 9.38916 24.465C9.72166 24.0525 10.0937 23.6625 10.4896 23.31C10.4975 23.31 10.4975 23.31 10.4975 23.31C10.5292 23.28 10.5608 23.25 10.5925 23.2275C10.6321 23.1975 10.6637 23.16 10.7033 23.1375C10.8617 23.0025 11.02 22.8825 11.1862 22.77C11.1862 22.7625 11.1942 22.7625 11.1942 22.7625C12.6904 21.705 14.5429 21.0825 16.5617 21.0825C18.1292 21.0825 19.5858 21.4575 20.8604 22.1175H20.8683C21.9608 22.6875 22.9108 23.46 23.6629 24.39C23.9558 24.75 24.2171 25.1325 24.4387 25.5375H24.4467C24.4862 25.6125 24.5258 25.6875 24.5654 25.7625C24.8029 26.205 24.9929 26.67 25.1354 27.15H25.1433C25.1512 27.1875 25.1671 27.225 25.175 27.2625C25.27 27.585 25.3492 27.915 25.4046 28.2525C25.4125 28.32 25.4204 28.395 25.4283 28.4625C25.4837 28.8225 25.5075 29.19 25.5075 29.565Z" fill="#FFC107"/>
<path d="M23.8846 29.4826C23.8846 29.6026 23.8846 29.7301 23.8688 29.8501V29.8576C23.8688 29.8651 23.8688 29.8651 23.8688 29.8651C23.8529 30.4051 23.7738 30.9376 23.6471 31.4176C23.6471 31.4476 23.6392 31.4701 23.6234 31.5001H19.9263L16.8784 30.8776L16.4746 30.7951L16.4113 30.8101L13.0309 31.4701L12.8804 31.5001H12.6667C12.16 31.5001 11.6613 31.4551 11.1784 31.3651C11.1071 31.3501 11.0359 31.3351 10.9646 31.3201H10.9567C10.4025 31.2076 9.86419 31.0351 9.35752 30.8101C9.34169 30.7276 9.32585 30.6451 9.31794 30.5626C9.26252 30.2401 9.23877 29.9026 9.23877 29.5651C9.23877 29.4376 9.23877 29.3101 9.24669 29.1826C9.27044 28.7776 9.33377 28.3801 9.42877 27.9976C9.4921 27.7126 9.57919 27.4351 9.6821 27.1726C9.76919 26.9401 9.8721 26.7151 9.98294 26.4976C10.0779 26.3101 10.1888 26.1301 10.2996 25.9501C10.4104 25.7776 10.5292 25.6126 10.6559 25.4476C10.9725 25.0351 11.3446 24.6526 11.7563 24.3151C11.9938 24.1201 12.255 23.9326 12.5242 23.7676C13.68 23.0476 15.0654 22.6276 16.5617 22.6276C16.8546 22.6276 17.1396 22.6426 17.4167 22.6801H17.4325C18.2796 22.7701 19.0713 22.9951 19.7996 23.3326C19.8075 23.3326 19.8075 23.3326 19.8075 23.3326C20.9554 23.8651 21.9292 24.6676 22.6417 25.6576C22.7604 25.8226 22.8792 26.0026 22.9821 26.1826C23.0692 26.3251 23.1484 26.4751 23.2196 26.6251C23.3304 26.8576 23.4334 27.1051 23.5204 27.3526H23.5284C23.6154 27.6301 23.6946 27.9076 23.75 28.2001V28.2076C23.8371 28.6201 23.8846 29.0476 23.8846 29.4826Z" fill="#FFD54F"/>
<path d="M22.2538 29.64V29.6625C22.2538 30.105 22.1984 30.54 22.0875 30.9675C22.0479 31.1475 21.9925 31.3275 21.9213 31.5H18.3746L16.5617 31.0275L14.7488 31.5H12.6667C12.16 31.5 11.6613 31.455 11.1784 31.365C11.1625 31.3425 11.1546 31.32 11.1467 31.2975C11.0359 30.975 10.9488 30.6525 10.9092 30.315C10.8775 30.0975 10.8617 29.8725 10.8617 29.64C10.8617 29.55 10.8617 29.4525 10.8775 29.3625C10.8854 29.01 10.9409 28.665 11.0359 28.335C11.0834 28.11 11.1546 27.8925 11.2496 27.6825C11.2813 27.5775 11.3288 27.48 11.3842 27.3825C11.5029 27.1275 11.6454 26.88 11.8038 26.64C11.9779 26.4 12.1679 26.175 12.3817 25.965C12.635 25.695 12.92 25.4475 13.2446 25.245C13.7988 24.8625 14.4321 24.5775 15.1209 24.42C15.58 24.3 16.0629 24.24 16.5617 24.24C18.145 24.24 19.5621 24.84 20.5913 25.8075C20.6309 25.845 20.6784 25.89 20.7179 25.9425H20.7259C20.8367 26.055 20.9396 26.1675 21.0425 26.295C21.3354 26.6475 21.5809 27.03 21.7709 27.45C21.8659 27.645 21.945 27.8475 22.0084 28.0575C22.0163 28.0875 22.0242 28.11 22.0321 28.14C22.1429 28.5075 22.2142 28.89 22.23 29.2875C22.2459 29.4 22.2538 29.52 22.2538 29.64Z" fill="#FFE082"/>
<path d="M20.6309 29.64C20.6309 29.9475 20.5913 30.24 20.5042 30.5175C20.4251 30.8175 20.3063 31.1025 20.1559 31.3725C20.1321 31.4175 20.0767 31.5 20.0767 31.5H13.0467C13.0388 31.4925 13.0309 31.4775 13.0309 31.47C12.9359 31.3275 12.8567 31.185 12.7934 31.0275C12.6351 30.6825 12.5401 30.3075 12.5084 29.9175C12.4926 29.8275 12.4926 29.73 12.4926 29.64C12.4926 29.595 12.4926 29.5425 12.5005 29.4975C12.5084 29.1675 12.5559 28.8525 12.6509 28.56C12.7301 28.29 12.833 28.0425 12.9676 27.8025C12.9676 27.8025 12.9755 27.795 12.9755 27.7875C13.0705 27.63 13.1734 27.4725 13.2921 27.3225C13.6801 26.8275 14.1946 26.4225 14.7884 26.16C14.7963 26.16 14.7963 26.16 14.7963 26.16C14.9863 26.07 15.1842 25.995 15.3901 25.9425C15.3901 25.9425 15.3901 25.9425 15.398 25.9425C15.7621 25.8375 16.158 25.785 16.5617 25.785C17.0288 25.785 17.4801 25.8525 17.8917 25.995C18.0421 26.0325 18.1846 26.0925 18.3271 26.16C18.3271 26.16 18.3271 26.16 18.3351 26.16C19.0159 26.4675 19.5938 26.9475 19.9896 27.5475C20.0688 27.66 20.1401 27.78 20.2034 27.9075C20.2351 27.96 20.2667 28.02 20.2905 28.0725C20.4726 28.4625 20.5834 28.89 20.6151 29.34C20.623 29.3775 20.623 29.415 20.623 29.46C20.6309 29.52 20.6309 29.58 20.6309 29.64Z" fill="#FFECB3"/>
<path d="M23.75 8.25H14.25C11.1625 8.25 8.70837 10.575 8.70837 13.5V22.5C8.70837 25.425 11.1625 27.75 14.25 27.75H23.75C26.8375 27.75 29.2917 25.425 29.2917 22.5V13.5C29.2917 10.575 26.8375 8.25 23.75 8.25Z" stroke="white" stroke-width="4" stroke-miterlimit="10" stroke-linecap="round" stroke-linejoin="round"/>
<path d="M24.5417 12.75C24.9789 12.75 25.3333 12.4142 25.3333 12C25.3333 11.5858 24.9789 11.25 24.5417 11.25C24.1044 11.25 23.75 11.5858 23.75 12C23.75 12.4142 24.1044 12.75 24.5417 12.75Z" fill="white"/>
<path d="M19 22.5C21.6234 22.5 23.75 20.4853 23.75 18C23.75 15.5147 21.6234 13.5 19 13.5C16.3766 13.5 14.25 15.5147 14.25 18C14.25 20.4853 16.3766 22.5 19 22.5Z" stroke="white" stroke-width="4" stroke-miterlimit="10" stroke-linecap="round" stroke-linejoin="round"/>
</svg>
