<svg width="65" height="65" viewBox="0 0 65 65" fill="none" xmlns="http://www.w3.org/2000/svg">
<path d="M6.59204 58.6395L10.2402 45.3212C7.98954 41.4239 6.806 37.0012 6.80735 32.4715C6.81412 18.3002 18.3462 6.77081 32.5189 6.77081C39.3967 6.77352 45.8507 9.45071 50.7054 14.3081C55.5587 19.1669 58.2318 25.6235 58.2291 32.4919C58.2237 46.6632 46.6889 58.1939 32.5189 58.1939C32.5176 58.1939 32.5189 58.1939 32.5189 58.1939H32.5081C28.2059 58.1926 23.9768 57.1133 20.2217 55.0645L6.59204 58.6395Z" fill="white"/>
<path d="M6.59202 59.3166C6.41327 59.3166 6.23994 59.2461 6.11129 59.1161C5.94202 58.9442 5.87566 58.6936 5.93931 58.4621L9.51296 45.4133C7.29754 41.4781 6.12889 37.0094 6.1316 32.4729C6.13702 17.9265 17.9738 6.09375 32.5189 6.09375C39.5741 6.09646 46.2027 8.84406 51.1847 13.8301C56.1667 18.8175 58.9089 25.4448 58.9062 32.4919C58.9008 47.037 47.0626 58.871 32.5189 58.871C28.2005 58.8697 23.9281 57.804 20.1364 55.7876L6.764 59.2935C6.70712 59.3098 6.65025 59.3166 6.59202 59.3166Z" fill="white"/>
<path d="M32.5189 6.77085C39.3967 6.77356 45.8507 9.45075 50.7053 14.3081C55.5587 19.1669 58.2318 25.6236 58.2291 32.4919C58.2237 46.6632 46.6889 58.194 32.5189 58.194H32.5081C28.2059 58.1926 23.9768 57.1134 20.2217 55.0645L6.59203 58.6395L10.2402 45.3213C7.98953 41.424 6.80599 37.0013 6.80734 32.4716C6.81411 18.3002 18.3462 6.77085 32.5189 6.77085ZM32.5189 5.41669C17.6014 5.41669 5.45994 17.5527 5.45317 32.4716C5.45182 37.0311 6.60286 41.5242 8.78578 45.5014L5.28526 58.2834C5.15797 58.7505 5.28797 59.2489 5.62922 59.5928C5.88651 59.8528 6.23453 59.995 6.59203 59.995C6.70713 59.995 6.82224 59.9801 6.93599 59.9503L20.0538 56.5107C23.8834 58.4987 28.1761 59.5481 32.5081 59.5495C47.4364 59.5495 59.5778 47.4121 59.5846 32.4933C59.5873 25.2634 56.7747 18.4654 51.6655 13.3521C46.5535 8.23742 39.7542 5.4194 32.5189 5.41669Z" fill="#CFD8DC"/>
<path d="M47.6341 17.3767C43.5987 13.3386 38.2348 11.1137 32.5257 11.1123C20.739 11.1123 11.1529 20.6944 11.1475 32.4729C11.1461 36.5097 12.2755 40.4395 14.4151 43.8425L14.9242 44.6509L12.7643 52.5335L20.8528 50.4129L21.6341 50.876C24.9139 52.8233 28.6758 53.8525 32.5108 53.8539H32.5189C44.2975 53.8539 53.8836 44.2704 53.8877 32.4905C53.889 26.7827 51.6695 21.4148 47.6341 17.3767Z" fill="#40C351"/>
<path fill-rule="evenodd" clip-rule="evenodd" d="M26.0921 21.7276C25.6114 20.6578 25.1049 20.6362 24.6459 20.6172C24.2708 20.601 23.8428 20.6023 23.4149 20.6023C22.987 20.6023 22.291 20.7635 21.7019 21.4067C21.1128 22.0499 19.4526 23.6032 19.4526 26.7638C19.4526 29.9244 21.7547 32.9794 22.0757 33.4073C22.3966 33.8352 26.52 40.5289 33.0498 43.1045C38.476 45.2441 39.581 44.8189 40.7591 44.7119C41.9372 44.6049 44.5602 43.1587 45.0951 41.6583C45.63 40.1578 45.63 38.8727 45.4702 38.6046C45.3091 38.3365 44.8812 38.1767 44.2393 37.8544C43.5974 37.5321 40.4382 35.9789 39.8491 35.7649C39.26 35.551 38.8321 35.444 38.4028 36.0872C37.9749 36.7291 36.744 38.1767 36.3689 38.6046C35.9938 39.0339 35.6187 39.0881 34.9768 38.7658C34.3349 38.4435 32.2658 37.7664 29.8107 35.5781C27.9013 33.8759 26.6121 31.7728 26.237 31.1296C25.8619 30.4877 26.1964 30.1397 26.5187 29.8188C26.8071 29.5303 27.1606 29.0686 27.4828 28.6935C27.8038 28.3184 27.9108 28.0502 28.1247 27.6223C28.3387 27.1931 28.2317 26.8179 28.0706 26.497C27.9121 26.1747 26.6636 22.9978 26.0921 21.7276Z" fill="white"/>
</svg>
